# xmcd
#
# Track frame offsets:
#	150
#	17937
#	36755
#	55429
#	73891
#	91237
#	101664
#	118660
#	137166
#	153411
#	169681
#	185971
#	212511
#	228766
#
# Disc length: 3272 seconds
#
# Revision: 0
# Processed by: cddbd v1.5.2PL0 Copyright (c) Steve Scherf et al.
# Submitted via: audiograbber 1.83.01
#
DISCID=c60cc60e
DTITLE=TM Studios - HC200836
DYEAR=2008
DGENRE=Country
TTITLE0=Rascal Flatts - Here
TTITLE1=Rio Grand - God's Got A Bigger Plan
TTITLE2=Sugarland - Already Gone [Radio Edit]
TTITLE3=Jeremy McComb - Cold [Single Version]
TTITLE4=John Michael Montgomery - Forever [Radio Edit]
TTITLE5=Patty Loveless - Why Baby Why [Album Version]
TTITLE6=Brad Paisley With Andy Griffith - Waitin' On A Woman
TTITLE7=Kindred The Family Soul - House Of Love [Radio Edit]
TTITLE8=Chris Standring - Have Your Cake and Eat It [Radio Edit With Alternative 
TTITLE8=Guitar Solo]
TTITLE9=Chris Standring - Have Your Cake and Eat It [Radio Edit]
TTITLE10=Vadim Brunell - On My Way [Album Version]
TTITLE11=Fourplay - Fortune Teller [Album Version]
TTITLE12=Robin Thicke - Magic [Radio Edit]
TTITLE13=Everette Harp - All Jazzed Up
EXTD=
EXTT0=
EXTT1=
EXTT2=
EXTT3=
EXTT4=
EXTT5=
EXTT6=
EXTT7=
EXTT8=
EXTT9=
EXTT10=
EXTT11=
EXTT12=
EXTT13=
PLAYORDER=
